solid 624 bearing
facet normal -0.608761429004101 0.79335334029478 -2.67465260066125e-013
   outer loop
      vertex 1.09442208900806 -7.76924598276059 4.50000000000214
      vertex 1.55005700761553 -7.41962501305322 2.13682074836348e-012
      vertex 1.09442208900825 -7.76924598276196 2.12131093270947e-012
   endloop
endfacet
facet normal -0.608761429004101 0.79335334029478 -2.67465260066125e-013
   outer loop
      vertex 1.55005700761553 -7.41962501305322 2.13682074836348e-012
      vertex 1.09442208900806 -7.76924598276059 4.50000000000214
      vertex 1.55005700761532 -7.41962501305186 4.50000000000216
   endloop
endfacet
facet normal -0.793353340293602 0.608761429005636 -2.19422751872008e-013
   outer loop
      vertex 1.55005700761532 -7.41962501305186 4.50000000000216
      vertex 1.89967797733007 -6.96399009444021 2.16643039643023e-012
      vertex 1.55005700761553 -7.41962501305322 2.13682074836348e-012
   endloop
endfacet
facet normal -0.793353340293602 0.608761429005636 -2.19422751872008e-013
   outer loop
      vertex 1.89967797733007 -6.96399009444021 2.16643039643023e-012
      vertex 1.55005700761532 -7.41962501305186 4.50000000000216
      vertex 1.89967797732987 -6.96399009443885 4.50000000000216
   endloop
endfacet
facet normal -0.923879532512099 0.382683432363129 -1.56598577169877e-013
   outer loop
      vertex 1.89967797732987 -6.96399009443885 4.50000000000216
      vertex 2.11945890684203 -6.43339199365828 2.15656051374132e-012
      vertex 1.89967797733007 -6.96399009444021 2.16643039643023e-012
   endloop
endfacet
facet normal -0.923879532512099 0.382683432363129 -1.56598577169877e-013
   outer loop
      vertex 2.11945890684203 -6.43339199365828 2.15656051374132e-012
      vertex 1.89967797732987 -6.96399009443885 4.50000000000216
      vertex 2.11945890684183 -6.43339199365691 4.50000000000218
   endloop
endfacet
facet normal -0.991444861373869 0.13052619221961 -8.21897730032875e-014
   outer loop
      vertex 2.11945890684183 -6.43339199365691 4.50000000000218
      vertex 2.19442208900518 -5.86399009443759 2.14810061429367e-012
      vertex 2.11945890684203 -6.43339199365828 2.15656051374132e-012
   endloop
endfacet
facet normal -0.991444861373869 0.13052619221961 -8.21897730032875e-014
   outer loop
      vertex 2.19442208900518 -5.86399009443759 2.14810061429367e-012
      vertex 2.11945890684183 -6.43339199365691 4.50000000000218
      vertex 2.19442208900499 -5.86399009443622 4.50000000000214
   endloop
endfacet
facet normal -0.991444861373876 -0.130526192219549 -2.15993448418036e-015
   outer loop
      vertex 2.19442208900499 -5.86399009443622 4.50000000000214
      vertex 2.11945890684206 -5.29458819521687 2.09452125112526e-012
      vertex 2.19442208900518 -5.86399009443759 2.14810061429367e-012
   endloop
endfacet
facet normal -0.991444861373876 -0.130526192219549 -2.15993448418036e-015
   outer loop
      vertex 2.11945890684206 -5.29458819521687 2.09452125112526e-012
      vertex 2.19442208900499 -5.86399009443622 4.50000000000214
      vertex 2.11945890684187 -5.29458819521552 4.5000000000021
   endloop
endfacet
facet normal -0.923879532512137 -0.382683432363038 7.78584607211887e-014
   outer loop
      vertex 2.11945890684187 -5.29458819521552 4.5000000000021
      vertex 1.89967797733015 -4.76399009443494 2.03248198850921e-012
      vertex 2.11945890684206 -5.29458819521687 2.09452125112526e-012
   endloop
endfacet
facet normal -0.923879532512137 -0.382683432363038 7.78584607211887e-014
   outer loop
      vertex 1.89967797733015 -4.76399009443494 2.03248198850921e-012
      vertex 2.11945890684187 -5.29458819521552 4.5000000000021
      vertex 1.89967797732997 -4.76399009443356 4.50000000000206
   endloop
endfacet
facet normal -0.793353340293666 -0.608761429005552 1.53485850264704e-013
   outer loop
      vertex 1.89967797732997 -4.76399009443356 4.50000000000206
      vertex 1.55005700761565 -4.30835517582189 1.97608265885825e-012
      vertex 1.89967797733015 -4.76399009443494 2.03248198850921e-012
   endloop
endfacet
facet normal -0.793353340293666 -0.608761429005552 1.53485850264704e-013
   outer loop
      vertex 1.55005700761565 -4.30835517582189 1.97608265885825e-012
      vertex 1.89967797732997 -4.76399009443356 4.50000000000206
      vertex 1.55005700761546 -4.3083551758205 4.50000000000197
   endloop
endfacet
facet normal -0.608761428999306 -0.79335334029846 2.15295764981752e-013
   outer loop
      vertex 1.55005700761565 -4.30835517582189 1.97608265885825e-012
      vertex 1.09442208900244 -3.95873420611174 4.50000000000193
      vertex 1.09442208900264 -3.9587342061131 1.91263341300092e-012
   endloop
endfacet
facet normal -0.608761428999306 -0.79335334029846 2.15295764981752e-013
   outer loop
      vertex 1.09442208900244 -3.95873420611174 4.50000000000193
      vertex 1.55005700761565 -4.30835517582189 1.97608265885825e-012
      vertex 1.55005700761546 -4.3083551758205 4.50000000000197
   endloop
endfacet
facet normal -0.382683432370245 -0.923879532509151 2.6140348000006e-013
   outer loop
      vertex 1.09442208900264 -3.9587342061131 1.91263341300092e-012
      vertex 0.563823988232072 -3.73895327659978 4.50000000000187
      vertex 0.563823988232269 -3.73895327660114 1.85200413362614e-012
   endloop
endfacet
facet normal -0.382683432370245 -0.923879532509151 2.6140348000006e-013
   outer loop
      vertex 0.563823988232072 -3.73895327659978 4.50000000000187
      vertex 1.09442208900264 -3.9587342061131 1.91263341300092e-012
      vertex 1.09442208900244 -3.95873420611174 4.50000000000193
   endloop
endfacet
facet normal -0.130526192228205 -0.991444861372737 2.94050361099123e-013
   outer loop
      vertex 0.563823988232269 -3.73895327660114 1.85200413362614e-012
      vertex -0.00557791099440282 -3.66399009443084 4.50000000000179
      vertex -0.00557791099420543 -3.66399009443221 1.79701478721646e-012
   endloop
endfacet
facet normal -0.130526192228205 -0.991444861372737 2.94050361099123e-013
   outer loop
      vertex -0.00557791099440282 -3.66399009443084 4.50000000000179
      vertex 0.563823988232269 -3.73895327660114 1.85200413362614e-012
      vertex 0.563823988232072 -3.73895327659978 4.50000000000187
   endloop
endfacet
facet normal 0.130526192228105 -0.99144486137275 3.05792316277617e-013
   outer loop
      vertex -0.00557791099420543 -3.66399009443221 1.79701478721646e-012
      vertex -0.574979810220882 -3.73895327659972 4.50000000000174
      vertex -0.574979810220686 -3.73895327660108 1.73074557487658e-012
   endloop
endfacet
facet normal 0.130526192228105 -0.99144486137275 3.05792316277617e-013
   outer loop
      vertex -0.574979810220882 -3.73895327659972 4.50000000000174
      vertex -0.00557791099420543 -3.66399009443221 1.79701478721646e-012
      vertex -0.00557791099440282 -3.66399009443084 4.50000000000179
   endloop
endfacet
facet normal 0.382683432366608 -0.923879532510658 2.98101818334691e-013
   outer loop
      vertex -0.574979810220686 -3.73895327660108 1.73074557487658e-012
      vertex -1.10557791099706 -3.95873420611163 4.50000000000168
      vertex -1.10557791099686 -3.95873420611301 1.7025459100511e-012
   endloop
endfacet
facet normal 0.382683432366608 -0.923879532510658 2.98101818334691e-013
   outer loop
      vertex -1.10557791099706 -3.95873420611163 4.50000000000168
      vertex -0.574979810220686 -3.73895327660108 1.73074557487658e-012
      vertex -0.574979810220882 -3.73895327659972 4.50000000000174
   endloop
endfacet
facet normal -0.00483085351916719 -0.99998833135906 3.04331074474668e-013
   outer loop
      vertex 0.806568049386747 -12.2631477428331 4.00222857656891e-012
      vertex -0.00511897991046908 -12.2592265559349 4.5000000000026
      vertex -0.00511897991026181 -12.2592265559363 2.57814550288223e-012
   endloop
endfacet
facet normal -0.00483085351916719 -0.99998833135906 3.04331074474668e-013
   outer loop
      vertex -0.00511897991046908 -12.2592265559349 4.5000000000026
      vertex 0.806568049386747 -12.2631477428331 4.00222857656891e-012
      vertex 0.806568049386541 -12.2631477428318 4.500000000004
   endloop
endfacet
facet normal -0.00483085351929107 -0.999988331359059 3.08089516911625e-013
   outer loop
      vertex -0.00511897991046908 -12.2592265559349 4.5000000000026
      vertex -0.879596680595111 -12.2550020329639 3.94582924691796e-012
      vertex -0.00511897991026181 -12.2592265559363 2.57814550288223e-012
   endloop
endfacet
facet normal -0.00483085351929107 -0.999988331359059 3.08089516911625e-013
   outer loop
      vertex -0.879596680595111 -12.2550020329639 3.94582924691796e-012
      vertex -0.00511897991046908 -12.2592265559349 4.5000000000026
      vertex -0.87959668059532 -12.2550020329625 4.50000000000397
   endloop
endfacet
facet normal -0.263482271210957 -0.964664238353177 2.84982049256097e-013
   outer loop
      vertex -0.879596680595111 -12.2550020329639 3.94582924691796e-012
      vertex -2.5061984758119 -11.8107223361313 4.50000000000371
      vertex -2.50619847581173 -11.8107223361327 3.68075239755845e-012
   endloop
endfacet
facet normal -0.263482271210957 -0.964664238353177 2.84982049256097e-013
   outer loop
      vertex -2.5061984758119 -11.8107223361313 4.50000000000371
      vertex -0.879596680595111 -12.2550020329639 3.94582924691796e-012
      vertex -0.87959668059532 -12.2550020329625 4.50000000000397
   endloop
endfacet
facet normal -0.504177807548569 -0.863599871685677 2.41701210932369e-013
   outer loop
      vertex -2.50619847581173 -11.8107223361327 3.68075239755845e-012
      vertex -3.96238711200851 -10.9605855794622 4.50000000000337
      vertex -3.96238711200832 -10.9605855794636 3.3479963526178e-012
   endloop
endfacet
facet normal -0.504177807548569 -0.863599871685677 2.41701210932369e-013
   outer loop
      vertex -3.96238711200851 -10.9605855794622 4.50000000000337
      vertex -2.50619847581173 -11.8107223361327 3.68075239755845e-012
      vertex -2.5061984758119 -11.8107223361313 4.50000000000371
   endloop
endfacet
facet normal -0.710514459490388 -0.703682600932467 1.81989737738102e-013
   outer loop
      vertex -3.96238711200851 -10.9605855794622 4.50000000000337
      vertex -5.1489257400955 -9.76252717801567 2.91372151430543e-012
      vertex -3.96238711200832 -10.9605855794636 3.3479963526178e-012
   endloop
endfacet
facet normal -0.710514459490388 -0.703682600932467 1.81989737738102e-013
   outer loop
      vertex -5.1489257400955 -9.76252717801567 2.91372151430543e-012
      vertex -3.96238711200851 -10.9605855794622 4.50000000000337
      vertex -5.14892574009569 -9.76252717801432 4.5000000000029
   endloop
endfacet
facet normal -0.868430725204667 -0.495810523809747 1.12025939897425e-013
   outer loop
      vertex -5.14892574009569 -9.76252717801432 4.5000000000029
      vertex -5.9849537134083 -8.29819283195001 2.38920774855152e-012
      vertex -5.1489257400955 -9.76252717801567 2.91372151430543e-012
   endloop
endfacet
facet normal -0.868430725204667 -0.495810523809747 1.12025939897425e-013
   outer loop
      vertex -5.9849537134083 -8.29819283195001 2.38920774855152e-012
      vertex -5.14892574009569 -9.76252717801432 4.5000000000029
      vertex -5.98495371340849 -8.29819283194864 4.50000000000241
   endloop
endfacet
facet normal -0.967164872141574 -0.254149778861544 3.52848594928261e-014
   outer loop
      vertex -5.98495371340849 -8.29819283194864 4.50000000000241
      vertex -6.41349710717697 -6.6673745070315 1.84777418390232e-012
      vertex -5.9849537134083 -8.29819283195001 2.38920774855152e-012
   endloop
endfacet
facet normal -0.967164872141574 -0.254149778861544 3.52848594928261e-014
   outer loop
      vertex -6.41349710717697 -6.6673745070315 1.84777418390232e-012
      vertex -5.98495371340849 -8.29819283194864 4.50000000000241
      vertex -6.41349710717717 -6.66737450703013 4.50000000000183
   endloop
endfacet
facet normal -0.99998833135906 0.00483085351915522 -4.56502312005997e-014
   outer loop
      vertex -6.41349710717717 -6.66737450703013 4.50000000000183
      vertex -6.40957592028011 -5.85568747773452 2.4441970949612e-012
      vertex -6.41349710717697 -6.6673745070315 1.84777418390232e-012
   endloop
endfacet
facet normal -0.99998833135906 0.00483085351915522 -4.56502312005997e-014
   outer loop
      vertex -6.40957592028011 -5.85568747773452 2.4441970949612e-012
      vertex -6.41349710717717 -6.66737450703013 4.50000000000183
      vertex -6.40957592028031 -5.85568747773315 4.50000000000245
   endloop
endfacet
facet normal -0.999988331359059 0.00483085351931992 -4.59605193310965e-014
   outer loop
      vertex -6.40957592028031 -5.85568747773315 4.50000000000245
      vertex -6.40535139730775 -4.98120977704964 1.29929070304676e-012
      vertex -6.40957592028011 -5.85568747773452 2.4441970949612e-012
   endloop
endfacet
facet normal -0.999988331359059 0.00483085351931992 -4.59605193310965e-014
   outer loop
      vertex -6.40535139730775 -4.98120977704964 1.29929070304676e-012
      vertex -6.40957592028031 -5.85568747773315 4.50000000000245
      vertex -6.40535139730795 -4.98120977704827 4.50000000000128
   endloop
endfacet
facet normal -0.964664238353179 0.263482271210951 -1.21628391214967e-013
   outer loop
      vertex -6.40535139730795 -4.98120977704827 4.50000000000128
      vertex -5.96107170047653 -3.35460798183304 8.05796568600875e-013
      vertex -6.40535139730775 -4.98120977704964 1.29929070304676e-012
   endloop
endfacet
facet normal -0.964664238353179 0.263482271210951 -1.21628391214967e-013
   outer loop
      vertex -5.96107170047653 -3.35460798183304 8.05796568600875e-013
      vertex -6.40535139730795 -4.98120977704827 4.50000000000128
      vertex -5.96107170047672 -3.35460798183168 4.50000000000081
   endloop
endfacet
facet normal -0.863599871685675 0.504177807548573 -1.89095540970745e-013
   outer loop
      vertex -5.96107170047672 -3.35460798183168 4.50000000000081
      vertex -5.11093494380739 -1.89841934563645 3.57421897875758e-013
      vertex -5.96107170047653 -3.35460798183304 8.05796568600875e-013
   endloop
endfacet
facet normal -0.863599871685675 0.504177807548573 -1.89095540970745e-013
   outer loop
      vertex -5.11093494380739 -1.89841934563645 3.57421897875758e-013
      vertex -5.96107170047672 -3.35460798183168 4.50000000000081
      vertex -5.11093494380758 -1.89841934563509 4.50000000000038
   endloop
endfacet
facet normal -0.703682600932465 0.71051445949039 -2.45881470753892e-013
   outer loop
      vertex -5.11093494380739 -1.89841934563645 3.57421897875758e-013
      vertex -3.91287654235967 -0.711880717547868 4.50000000000008
      vertex -3.91287654235949 -0.711880717549248 5.42755010018593e-014
   endloop
endfacet
facet normal -0.703682600932465 0.71051445949039 -2.45881470753892e-013
   outer loop
      vertex -3.91287654235967 -0.711880717547868 4.50000000000008
      vertex -5.11093494380739 -1.89841934563645 3.57421897875758e-013
      vertex -5.11093494380758 -1.89841934563509 4.50000000000038
   endloop
endfacet
facet normal -0.495810523810405 0.868430725204292 -2.85790408178599e-013
   outer loop
      vertex -3.91287654235949 -0.711880717549248 5.42755010018593e-014
      vertex -2.66639268775414 -0.000229465540644308 4.49999999999985
      vertex -2.66639268775392 -0.000229465541992252 -1.69911834360698e-013
   endloop
endfacet
facet normal -0.495810523810405 0.868430725204292 -2.85790408178599e-013
   outer loop
      vertex -2.66639268775414 -0.000229465540644308 4.49999999999985
      vertex -3.91287654235949 -0.711880717549248 5.42755010018593e-014
      vertex -3.91287654235967 -0.711880717547868 4.50000000000008
   endloop
endfacet
facet normal -8.60584197531322e-005 0.999999996296974 -3.02602358484657e-013
   outer loop
      vertex -2.66639268775414 -0.000229465540644308 4.49999999999985
      vertex 2.66639268775392 0.000229465541992252 1.69894126786323e-013
      vertex -2.66639268775392 -0.000229465541992252 -1.69911834360698e-013
   endloop
endfacet
facet normal -8.60584197531322e-005 0.999999996296974 -3.02602358484657e-013
   outer loop
      vertex 2.66639268775392 0.000229465541992252 1.69894126786323e-013
      vertex -2.66639268775414 -0.000229465540644308 4.49999999999985
      vertex 2.66639268775369 0.000229465543367691 4.50000000000016
   endloop
endfacet
facet normal 0.504177807548103 0.863599871685949 -2.37824806406648e-013
   outer loop
      vertex 2.66639268775369 0.000229465543367691 4.50000000000016
      vertex 3.95123129001977 -0.749871513837419 4.87140356072962e-013
      vertex 2.66639268775392 0.000229465541992252 1.69894126786323e-013
   endloop
endfacet
facet normal 0.504177807548103 0.863599871685949 -2.37824806406648e-013
   outer loop
      vertex 3.95123129001977 -0.749871513837419 4.87140356072962e-013
      vertex 2.66639268775369 0.000229465543367691 4.50000000000016
      vertex 3.95123129001957 -0.749871513836064 4.50000000000048
   endloop
endfacet
facet normal 0.710514459490387 0.703682600932469 -1.78477556600135e-013
   outer loop
      vertex 3.95123129001977 -0.749871513837419 4.87140356072962e-013
      vertex 5.13776991810669 -1.94792991528387 4.50000000000097
      vertex 5.13776991810692 -1.94792991528525 9.2564514410916e-013
   endloop
endfacet
facet normal 0.710514459490387 0.703682600932469 -1.78477556600135e-013
   outer loop
      vertex 5.13776991810669 -1.94792991528387 4.50000000000097
      vertex 3.95123129001977 -0.749871513837419 4.87140356072962e-013
      vertex 3.95123129001957 -0.749871513836064 4.50000000000048
   endloop
endfacet
facet normal 0.868430725204668 0.495810523809746 -1.08788068106146e-013
   outer loop
      vertex 5.13776991810692 -1.94792991528525 9.2564514410916e-013
      vertex 5.97379789141951 -3.41226426134956 4.50000000000145
      vertex 5.9737978914197 -3.41226426135091 1.43041914448523e-012
   endloop
endfacet
facet normal 0.868430725204668 0.495810523809746 -1.08788068106146e-013
   outer loop
      vertex 5.97379789141951 -3.41226426134956 4.50000000000145
      vertex 5.13776991810692 -1.94792991528525 9.2564514410916e-013
      vertex 5.13776991810669 -1.94792991528387 4.50000000000097
   endloop
endfacet
facet normal 0.967164872141571 0.254149778861559 -3.11984247098937e-014
   outer loop
      vertex 5.9737978914197 -3.41226426135091 1.43041914448523e-012
      vertex 6.40234128518819 -5.04308258626808 4.50000000000202
      vertex 6.40234128518842 -5.04308258626942 1.98454255830589e-012
   endloop
endfacet
facet normal 0.967164872141571 0.254149778861559 -3.11984247098937e-014
   outer loop
      vertex 6.40234128518819 -5.04308258626808 4.50000000000202
      vertex 5.9737978914197 -3.41226426135091 1.43041914448523e-012
      vertex 5.97379789141951 -3.41226426134956 4.50000000000145
   endloop
endfacet
facet normal 4.3421194077619e-014 -3.03501083712957e-013 -1.0
   outer loop
      vertex -6.40957592028011 -5.85568747773452 2.4441970949612e-012
      vertex -5.9849537134083 -8.29819283195001 2.38920774855152e-012
      vertex -6.41349710717697 -6.6673745070315 1.84777418390232e-012
   endloop
endfacet
facet normal 4.3421194077619e-014 -3.03501083712957e-013 -1.0
   outer loop
      vertex -5.9849537134083 -8.29819283195001 2.38920774855152e-012
      vertex -6.40957592028011 -5.85568747773452 2.4441970949612e-012
      vertex -6.40535139730775 -4.98120977704964 1.29929070304676e-012
   endloop
endfacet
facet normal 4.3421194077619e-014 -3.03501083712957e-013 -1.0
   outer loop
      vertex -5.9849537134083 -8.29819283195001 2.38920774855152e-012
      vertex -6.40535139730775 -4.98120977704964 1.29929070304676e-012
      vertex -5.96107170047653 -3.35460798183304 8.05796568600875e-013
   endloop
endfacet
facet normal 4.3421194077619e-014 -3.03501083712957e-013 -1.0
   outer loop
      vertex -5.9849537134083 -8.29819283195001 2.38920774855152e-012
      vertex -5.96107170047653 -3.35460798183304 8.05796568600875e-013
      vertex -5.1489257400955 -9.76252717801567 2.91372151430543e-012
   endloop
endfacet
facet normal 4.3421194077619e-014 -3.03501083712957e-013 -1.0
   outer loop
      vertex -5.1489257400955 -9.76252717801567 2.91372151430543e-012
      vertex -5.96107170047653 -3.35460798183304 8.05796568600875e-013
      vertex -5.11093494380739 -1.89841934563645 3.57421897875758e-013
   endloop
endfacet
facet normal 4.3421194077619e-014 -3.03501083712957e-013 -1.0
   outer loop
      vertex -5.1489257400955 -9.76252717801567 2.91372151430543e-012
      vertex -5.11093494380739 -1.89841934563645 3.57421897875758e-013
      vertex -3.96238711200832 -10.9605855794636 3.3479963526178e-012
   endloop
endfacet
facet normal 4.3421194077619e-014 -3.03501083712957e-013 -1.0
   outer loop
      vertex -3.96238711200832 -10.9605855794636 3.3479963526178e-012
      vertex -5.11093494380739 -1.89841934563645 3.57421897875758e-013
      vertex -3.91287654235949 -0.711880717549248 5.42755010018593e-014
   endloop
endfacet
facet normal 4.3421194077619e-014 -3.03501083712957e-013 -1.0
   outer loop
      vertex -3.96238711200832 -10.9605855794636 3.3479963526178e-012
      vertex -3.91287654235949 -0.711880717549248 5.42755010018593e-014
      vertex -2.50619847581173 -11.8107223361327 3.68075239755845e-012
   endloop
endfacet
facet normal 4.3421194077619e-014 -3.03501083712957e-013 -1.0
   outer loop
      vertex -2.50619847581173 -11.8107223361327 3.68075239755845e-012
      vertex -3.91287654235949 -0.711880717549248 5.42755010018593e-014
      vertex -2.66639268775392 -0.000229465541992252 -1.69911834360698e-013
   endloop
endfacet
facet normal 4.3421194077619e-014 -3.03501083712957e-013 -1.0
   outer loop
      vertex -2.50619847581173 -11.8107223361327 3.68075239755845e-012
      vertex -2.66639268775392 -0.000229465541992252 -1.69911834360698e-013
      vertex -2.20557791099382 -5.86399009443739 1.72087569218767e-012
   endloop
endfacet
facet normal 4.3421194077619e-014 -3.03501083712957e-013 -1.0
   outer loop
      vertex -2.20557791099382 -5.86399009443739 1.72087569218767e-012
      vertex -2.66639268775392 -0.000229465541992252 -1.69911834360698e-013
      vertex -2.13061472883068 -5.29458819521669 1.66306637929543e-012
   endloop
endfacet
facet normal 4.3421194077619e-014 -3.03501083712957e-013 -1.0
   outer loop
      vertex -2.13061472883068 -5.29458819521669 1.66306637929543e-012
      vertex -2.66639268775392 -0.000229465541992252 -1.69911834360698e-013
      vertex -1.9108337993187 -4.76399009443477 1.66165639605416e-012
   endloop
endfacet
facet normal 4.3421194077619e-014 -3.03501083712957e-013 -1.0
   outer loop
      vertex -1.9108337993187 -4.76399009443477 1.66165639605416e-012
      vertex -2.66639268775392 -0.000229465541992252 -1.69911834360698e-013
      vertex -1.56121282960414 -4.30835517582175 1.66870631226053e-012
   endloop
endfacet
facet normal 4.3421194077619e-014 -3.03501083712957e-013 -1.0
   outer loop
      vertex -1.56121282960414 -4.30835517582175 1.66870631226053e-012
      vertex -2.66639268775392 -0.000229465541992252 -1.69911834360698e-013
      vertex 2.66639268775392 0.000229465541992252 1.69894126786323e-013
   endloop
endfacet
facet normal 4.3421194077619e-014 -3.03501083712957e-013 -1.0
   outer loop
      vertex -1.56121282960414 -4.30835517582175 1.66870631226053e-012
      vertex 2.66639268775392 0.000229465541992252 1.69894126786323e-013
      vertex -1.10557791099686 -3.95873420611301 1.7025459100511e-012
   endloop
endfacet
facet normal 4.3421194077619e-014 -3.03501083712957e-013 -1.0
   outer loop
      vertex -1.10557791099686 -3.95873420611301 1.7025459100511e-012
      vertex 2.66639268775392 0.000229465541992252 1.69894126786323e-013
      vertex -0.574979810220686 -3.73895327660108 1.73074557487658e-012
   endloop
endfacet
facet normal 4.3421194077619e-014 -3.03501083712957e-013 -1.0
   outer loop
      vertex -0.574979810220686 -3.73895327660108 1.73074557487658e-012
      vertex 2.66639268775392 0.000229465541992252 1.69894126786323e-013
      vertex -0.00557791099420543 -3.66399009443221 1.79701478721646e-012
   endloop
endfacet
facet normal 4.3421194077619e-014 -3.03501083712957e-013 -1.0
   outer loop
      vertex -0.00557791099420543 -3.66399009443221 1.79701478721646e-012
      vertex 2.66639268775392 0.000229465541992252 1.69894126786323e-013
      vertex 0.563823988232269 -3.73895327660114 1.85200413362614e-012
   endloop
endfacet
facet normal 4.3421194077619e-014 -3.03501083712957e-013 -1.0
   outer loop
      vertex 0.563823988232269 -3.73895327660114 1.85200413362614e-012
      vertex 2.66639268775392 0.000229465541992252 1.69894126786323e-013
      vertex 1.09442208900264 -3.9587342061131 1.91263341300092e-012
   endloop
endfacet
facet normal 4.3421194077619e-014 -3.03501083712957e-013 -1.0
   outer loop
      vertex 1.09442208900264 -3.9587342061131 1.91263341300092e-012
      vertex 2.66639268775392 0.000229465541992252 1.69894126786323e-013
      vertex 1.55005700761565 -4.30835517582189 1.97608265885825e-012
   endloop
endfacet
facet normal 4.3421194077619e-014 -3.03501083712957e-013 -1.0
   outer loop
      vertex 1.55005700761565 -4.30835517582189 1.97608265885825e-012
      vertex 2.66639268775392 0.000229465541992252 1.69894126786323e-013
      vertex 1.89967797733015 -4.76399009443494 2.03248198850921e-012
   endloop
endfacet
facet normal 4.3421194077619e-014 -3.03501083712957e-013 -1.0
   outer loop
      vertex 1.89967797733015 -4.76399009443494 2.03248198850921e-012
      vertex 2.66639268775392 0.000229465541992252 1.69894126786323e-013
      vertex 2.11945890684206 -5.29458819521687 2.09452125112526e-012
   endloop
endfacet
facet normal 4.3421194077619e-014 -3.03501083712957e-013 -1.0
   outer loop
      vertex 2.11945890684206 -5.29458819521687 2.09452125112526e-012
      vertex 2.66639268775392 0.000229465541992252 1.69894126786323e-013
      vertex 2.19442208900518 -5.86399009443759 2.14810061429367e-012
   endloop
endfacet
facet normal 4.3421194077619e-014 -3.03501083712957e-013 -1.0
   outer loop
      vertex 2.19442208900518 -5.86399009443759 2.14810061429367e-012
      vertex 2.66639268775392 0.000229465541992252 1.69894126786323e-013
      vertex 2.43738637430521 -11.8346043490645 3.97120894526089e-012
   endloop
endfacet
facet normal 4.3421194077619e-014 -3.03501083712957e-013 -1.0
   outer loop
      vertex 2.43738637430521 -11.8346043490645 3.97120894526089e-012
      vertex 2.66639268775392 0.000229465541992252 1.69894126786323e-013
      vertex 3.90172072037086 -10.9985763757517 3.77381129148253e-012
   endloop
endfacet
facet normal 4.3421194077619e-014 -3.03501083712957e-013 -1.0
   outer loop
      vertex 3.90172072037086 -10.9985763757517 3.77381129148253e-012
      vertex 2.66639268775392 0.000229465541992252 1.69894126786323e-013
      vertex 3.95123129001977 -0.749871513837419 4.87140356072962e-013
   endloop
endfacet
facet normal 4.3421194077619e-014 -3.03501083712957e-013 -1.0
   outer loop
      vertex 3.90172072037086 -10.9985763757517 3.77381129148253e-012
      vertex 3.95123129001977 -0.749871513837419 4.87140356072962e-013
      vertex 5.09977912181879 -9.81203774766446 3.47207487784991e-012
   endloop
endfacet
facet normal 4.3421194077619e-014 -3.03501083712957e-013 -1.0
   outer loop
      vertex 5.09977912181879 -9.81203774766446 3.47207487784991e-012
      vertex 3.95123129001977 -0.749871513837419 4.87140356072962e-013
      vertex 5.13776991810692 -1.94792991528525 9.2564514410916e-013
   endloop
endfacet
facet normal 4.3421194077619e-014 -3.03501083712957e-013 -1.0
   outer loop
      vertex 5.09977912181879 -9.81203774766446 3.47207487784991e-012
      vertex 5.13776991810692 -1.94792991528525 9.2564514410916e-013
      vertex 5.9499158784879 -8.35584911146787 3.02793015684862e-012
   endloop
endfacet
facet normal 4.3421194077619e-014 -3.03501083712957e-013 -1.0
   outer loop
      vertex 5.9499158784879 -8.35584911146787 3.02793015684862e-012
      vertex 5.13776991810692 -1.94792991528525 9.2564514410916e-013
      vertex 5.9737978914197 -3.41226426135091 1.43041914448523e-012
   endloop
endfacet
facet normal 4.3421194077619e-014 -3.03501083712957e-013 -1.0
   outer loop
      vertex 5.9499158784879 -8.35584911146787 3.02793015684862e-012
      vertex 5.9737978914197 -3.41226426135091 1.43041914448523e-012
      vertex 6.39419557531915 -6.7292473162513 2.53725598888528e-012
   endloop
endfacet
facet normal 4.3421194077619e-014 -3.03501083712957e-013 -1.0
   outer loop
      vertex 6.39419557531915 -6.7292473162513 2.53725598888528e-012
      vertex 5.9737978914197 -3.41226426135091 1.43041914448523e-012
      vertex 6.40234128518842 -5.04308258626942 1.98454255830589e-012
   endloop
endfacet
facet normal 4.3421194077619e-014 -3.03501083712957e-013 -1.0
   outer loop
      vertex 6.39419557531915 -6.7292473162513 2.53725598888528e-012
      vertex 6.40234128518842 -5.04308258626942 1.98454255830589e-012
      vertex 6.39842009829151 -5.85476961556641 2.27358912276705e-012
   endloop
endfacet
facet normal 4.3421194077619e-014 -3.03501083712957e-013 -1.0
   outer loop
      vertex -2.50619847581173 -11.8107223361327 3.68075239755845e-012
      vertex -2.13061472883071 -6.43339199365808 1.71523575922257e-012
      vertex -0.879596680595111 -12.2550020329639 3.94582924691796e-012
   endloop
endfacet
facet normal 4.3421194077619e-014 -3.03501083712957e-013 -1.0
   outer loop
      vertex -2.13061472883071 -6.43339199365808 1.71523575922257e-012
      vertex -2.50619847581173 -11.8107223361327 3.68075239755845e-012
      vertex -2.20557791099382 -5.86399009443739 1.72087569218767e-012
   endloop
endfacet
facet normal 4.3421194077619e-014 -3.03501083712957e-013 -1.0
   outer loop
      vertex -0.879596680595111 -12.2550020329639 3.94582924691796e-012
      vertex -2.13061472883071 -6.43339199365808 1.71523575922257e-012
      vertex -1.91083379931878 -6.96399009444005 1.78996487101009e-012
   endloop
endfacet
facet normal 4.3421194077619e-014 -3.03501083712957e-013 -1.0
   outer loop
      vertex -0.879596680595111 -12.2550020329639 3.94582924691796e-012
      vertex -1.91083379931878 -6.96399009444005 1.78996487101009e-012
      vertex -1.56121282960426 -7.41962501305308 1.82803441852449e-012
   endloop
endfacet
facet normal 4.3421194077619e-014 -3.03501083712957e-013 -1.0
   outer loop
      vertex -0.879596680595111 -12.2550020329639 3.94582924691796e-012
      vertex -1.56121282960426 -7.41962501305308 1.82803441852449e-012
      vertex -1.10557791099125 -7.76924598276186 1.89430363086436e-012
   endloop
endfacet
facet normal 4.3421194077619e-014 -3.03501083712957e-013 -1.0
   outer loop
      vertex -0.879596680595111 -12.2550020329639 3.94582924691796e-012
      vertex -1.10557791099125 -7.76924598276186 1.89430363086436e-012
      vertex -0.574979810220869 -7.98902691227383 1.96339280968679e-012
   endloop
endfacet
facet normal 4.3421194077619e-014 -3.03501083712957e-013 -1.0
   outer loop
      vertex -0.879596680595111 -12.2550020329639 3.94582924691796e-012
      vertex -0.574979810220869 -7.98902691227383 1.96339280968679e-012
      vertex -0.00511897991026181 -12.2592265559363 2.57814550288223e-012
   endloop
endfacet
facet normal 4.3421194077619e-014 -3.03501083712957e-013 -1.0
   outer loop
      vertex -0.00511897991026181 -12.2592265559363 2.57814550288223e-012
      vertex -0.574979810220869 -7.98902691227383 1.96339280968679e-012
      vertex -0.0055779109944 -8.06399009444276 2.05081177064577e-012
   endloop
endfacet
facet normal 4.3421194077619e-014 -3.03501083712957e-013 -1.0
   outer loop
      vertex -0.00511897991026181 -12.2592265559363 2.57814550288223e-012
      vertex -0.0055779109944 -8.06399009444276 2.05081177064577e-012
      vertex 0.563823988232086 -7.98902691227389 2.0818314019538e-012
   endloop
endfacet
facet normal 4.3421194077619e-014 -3.03501083712957e-013 -1.0
   outer loop
      vertex -0.00511897991026181 -12.2592265559363 2.57814550288223e-012
      vertex 0.563823988232086 -7.98902691227389 2.0818314019538e-012
      vertex 0.806568049386747 -12.2631477428331 4.00222857656891e-012
   endloop
endfacet
facet normal 4.3421194077619e-014 -3.03501083712957e-013 -1.0
   outer loop
      vertex 0.806568049386747 -12.2631477428331 4.00222857656891e-012
      vertex 0.563823988232086 -7.98902691227389 2.0818314019538e-012
      vertex 1.09442208900825 -7.76924598276196 2.12131093270947e-012
   endloop
endfacet
facet normal 4.3421194077619e-014 -3.03501083712957e-013 -1.0
   outer loop
      vertex 0.806568049386747 -12.2631477428331 4.00222857656891e-012
      vertex 1.09442208900825 -7.76924598276196 2.12131093270947e-012
      vertex 2.43738637430521 -11.8346043490645 3.97120894526089e-012
   endloop
endfacet
facet normal 4.3421194077619e-014 -3.03501083712957e-013 -1.0
   outer loop
      vertex 2.43738637430521 -11.8346043490645 3.97120894526089e-012
      vertex 1.09442208900825 -7.76924598276196 2.12131093270947e-012
      vertex 1.55005700761553 -7.41962501305322 2.13682074836348e-012
   endloop
endfacet
facet normal 4.3421194077619e-014 -3.03501083712957e-013 -1.0
   outer loop
      vertex 2.43738637430521 -11.8346043490645 3.97120894526089e-012
      vertex 1.55005700761553 -7.41962501305322 2.13682074836348e-012
      vertex 1.89967797733007 -6.96399009444021 2.16643039643023e-012
   endloop
endfacet
facet normal 4.3421194077619e-014 -3.03501083712957e-013 -1.0
   outer loop
      vertex 2.43738637430521 -11.8346043490645 3.97120894526089e-012
      vertex 1.89967797733007 -6.96399009444021 2.16643039643023e-012
      vertex 2.11945890684203 -6.43339199365828 2.15656051374132e-012
   endloop
endfacet
facet normal 4.3421194077619e-014 -3.03501083712957e-013 -1.0
   outer loop
      vertex 2.43738637430521 -11.8346043490645 3.97120894526089e-012
      vertex 2.11945890684203 -6.43339199365828 2.15656051374132e-012
      vertex 2.19442208900518 -5.86399009443759 2.14810061429367e-012
   endloop
endfacet
facet normal 0.608761429004102 -0.793353340294779 2.68692892817143e-013
   outer loop
      vertex -1.10557791099686 -3.95873420611301 1.7025459100511e-012
      vertex -1.56121282960433 -4.30835517582038 4.50000000000169
      vertex -1.56121282960414 -4.30835517582175 1.66870631226053e-012
   endloop
endfacet
facet normal 0.608761429004102 -0.793353340294779 2.68692892817143e-013
   outer loop
      vertex -1.56121282960433 -4.30835517582038 4.50000000000169
      vertex -1.10557791099686 -3.95873420611301 1.7025459100511e-012
      vertex -1.10557791099706 -3.95873420611163 4.50000000000168
   endloop
endfacet
facet normal 0.793353340293594 -0.608761429005647 2.18528082194874e-013
   outer loop
      vertex -1.56121282960414 -4.30835517582175 1.66870631226053e-012
      vertex -1.91083379931889 -4.7639900944334 4.50000000000165
      vertex -1.9108337993187 -4.76399009443477 1.66165639605416e-012
   endloop
endfacet
facet normal 0.793353340293594 -0.608761429005647 2.18528082194874e-013
   outer loop
      vertex -1.91083379931889 -4.7639900944334 4.50000000000165
      vertex -1.56121282960414 -4.30835517582175 1.66870631226053e-012
      vertex -1.56121282960433 -4.30835517582038 4.50000000000169
   endloop
endfacet
facet normal 0.923879532512084 -0.382683432363165 1.55045447185577e-013
   outer loop
      vertex -1.9108337993187 -4.76399009443477 1.66165639605416e-012
      vertex -2.13061472883087 -5.29458819521531 4.50000000000166
      vertex -2.13061472883068 -5.29458819521669 1.66306637929543e-012
   endloop
endfacet
facet normal 0.923879532512084 -0.382683432363165 1.55045447185577e-013
   outer loop
      vertex -2.13061472883087 -5.29458819521531 4.50000000000166
      vertex -1.9108337993187 -4.76399009443477 1.66165639605416e-012
      vertex -1.91083379931889 -4.7639900944334 4.50000000000165
   endloop
endfacet
facet normal 0.991444861373873 -0.13052619221958 8.1273591498453e-014
   outer loop
      vertex -2.13061472883068 -5.29458819521669 1.66306637929543e-012
      vertex -2.20557791099401 -5.86399009443602 4.50000000000173
      vertex -2.20557791099382 -5.86399009443739 1.72087569218767e-012
   endloop
endfacet
facet normal 0.991444861373873 -0.13052619221958 8.1273591498453e-014
   outer loop
      vertex -2.20557791099401 -5.86399009443602 4.50000000000173
      vertex -2.13061472883068 -5.29458819521669 1.66306637929543e-012
      vertex -2.13061472883087 -5.29458819521531 4.50000000000166
   endloop
endfacet
facet normal 0.99144486137388 0.130526192219523 2.8635236908807e-015
   outer loop
      vertex -2.20557791099382 -5.86399009443739 1.72087569218767e-012
      vertex -2.13061472883091 -6.43339199365674 4.50000000000174
      vertex -2.13061472883071 -6.43339199365808 1.71523575922257e-012
   endloop
endfacet
facet normal 0.99144486137388 0.130526192219523 2.8635236908807e-015
   outer loop
      vertex -2.13061472883091 -6.43339199365674 4.50000000000174
      vertex -2.20557791099382 -5.86399009443739 1.72087569218767e-012
      vertex -2.20557791099401 -5.86399009443602 4.50000000000173
   endloop
endfacet
facet normal 0.923879532512126 0.382683432363064 -7.52324372805618e-014
   outer loop
      vertex -2.13061472883071 -6.43339199365808 1.71523575922257e-012
      vertex -1.91083379931898 -6.96399009443867 4.5000000000018
      vertex -1.91083379931878 -6.96399009444005 1.78996487101009e-012
   endloop
endfacet
facet normal 0.923879532512126 0.382683432363064 -7.52324372805618e-014
   outer loop
      vertex -1.91083379931898 -6.96399009443867 4.5000000000018
      vertex -2.13061472883071 -6.43339199365808 1.71523575922257e-012
      vertex -2.13061472883091 -6.43339199365674 4.50000000000174
   endloop
endfacet
facet normal 0.793353340293639 0.608761429005588 -1.49470015304016e-013
   outer loop
      vertex -1.91083379931878 -6.96399009444005 1.78996487101009e-012
      vertex -1.56121282960446 -7.41962501305172 4.50000000000186
      vertex -1.56121282960426 -7.41962501305308 1.82803441852449e-012
   endloop
endfacet
facet normal 0.793353340293639 0.608761429005588 -1.49470015304016e-013
   outer loop
      vertex -1.56121282960446 -7.41962501305172 4.50000000000186
      vertex -1.91083379931878 -6.96399009444005 1.78996487101009e-012
      vertex -1.91083379931898 -6.96399009443867 4.5000000000018
   endloop
endfacet
facet normal 0.60876142899932 0.793353340298449 -2.12643173994853e-013
   outer loop
      vertex -1.56121282960446 -7.41962501305172 4.50000000000186
      vertex -1.10557791099125 -7.76924598276186 1.89430363086436e-012
      vertex -1.56121282960426 -7.41962501305308 1.82803441852449e-012
   endloop
endfacet
facet normal 0.60876142899932 0.793353340298449 -2.12643173994853e-013
   outer loop
      vertex -1.10557791099125 -7.76924598276186 1.89430363086436e-012
      vertex -1.56121282960446 -7.41962501305172 4.50000000000186
      vertex -1.10557791099144 -7.7692459827605 4.50000000000191
   endloop
endfacet
facet normal 0.382683432370256 0.923879532509147 -2.61801814466135e-013
   outer loop
      vertex -1.10557791099144 -7.7692459827605 4.50000000000191
      vertex -0.574979810220869 -7.98902691227383 1.96339280968679e-012
      vertex -1.10557791099125 -7.76924598276186 1.89430363086436e-012
   endloop
endfacet
facet normal 0.382683432370256 0.923879532509147 -2.61801814466135e-013
   outer loop
      vertex -0.574979810220869 -7.98902691227383 1.96339280968679e-012
      vertex -1.10557791099144 -7.7692459827605 4.50000000000191
      vertex -0.574979810221075 -7.98902691227247 4.50000000000199
   endloop
endfacet
facet normal 0.130526192228196 0.991444861372738 -2.93307438510493e-013
   outer loop
      vertex -0.574979810221075 -7.98902691227247 4.50000000000199
      vertex -0.0055779109944 -8.06399009444276 2.05081177064577e-012
      vertex -0.574979810220869 -7.98902691227383 1.96339280968679e-012
   endloop
endfacet
facet normal 0.130526192228196 0.991444861372738 -2.93307438510493e-013
   outer loop
      vertex -0.0055779109944 -8.06399009444276 2.05081177064577e-012
      vertex -0.574979810221075 -7.98902691227247 4.50000000000199
      vertex -0.0055779109945974 -8.0639900944414 4.50000000000207
   endloop
endfacet
facet normal -4.34422298420669e-014 3.03444591519441e-013 1.0
   outer loop
      vertex -2.5061984758119 -11.8107223361313 4.50000000000371
      vertex -2.13061472883091 -6.43339199365674 4.50000000000174
      vertex -2.20557791099401 -5.86399009443602 4.50000000000173
   endloop
endfacet
facet normal -4.34422298420669e-014 3.03444591519441e-013 1.0
   outer loop
      vertex -2.13061472883091 -6.43339199365674 4.50000000000174
      vertex -2.5061984758119 -11.8107223361313 4.50000000000371
      vertex -0.87959668059532 -12.2550020329625 4.50000000000397
   endloop
endfacet
facet normal -4.34422298420669e-014 3.03444591519441e-013 1.0
   outer loop
      vertex -2.13061472883091 -6.43339199365674 4.50000000000174
      vertex -0.87959668059532 -12.2550020329625 4.50000000000397
      vertex -1.91083379931898 -6.96399009443867 4.5000000000018
   endloop
endfacet
facet normal -4.34422298420669e-014 3.03444591519441e-013 1.0
   outer loop
      vertex -1.91083379931898 -6.96399009443867 4.5000000000018
      vertex -0.87959668059532 -12.2550020329625 4.50000000000397
      vertex -1.56121282960446 -7.41962501305172 4.50000000000186
   endloop
endfacet
facet normal -4.34422298420669e-014 3.03444591519441e-013 1.0
   outer loop
      vertex -1.56121282960446 -7.41962501305172 4.50000000000186
      vertex -0.87959668059532 -12.2550020329625 4.50000000000397
      vertex -1.10557791099144 -7.7692459827605 4.50000000000191
   endloop
endfacet
facet normal -4.34422298420669e-014 3.03444591519441e-013 1.0
   outer loop
      vertex -1.10557791099144 -7.7692459827605 4.50000000000191
      vertex -0.87959668059532 -12.2550020329625 4.50000000000397
      vertex -0.574979810221075 -7.98902691227247 4.50000000000199
   endloop
endfacet
facet normal -4.34422298420669e-014 3.03444591519441e-013 1.0
   outer loop
      vertex -0.574979810221075 -7.98902691227247 4.50000000000199
      vertex -0.87959668059532 -12.2550020329625 4.50000000000397
      vertex -0.00511897991046908 -12.2592265559349 4.5000000000026
   endloop
endfacet
facet normal -4.34422298420669e-014 3.03444591519441e-013 1.0
   outer loop
      vertex -0.574979810221075 -7.98902691227247 4.50000000000199
      vertex -0.00511897991046908 -12.2592265559349 4.5000000000026
      vertex -0.0055779109945974 -8.0639900944414 4.50000000000207
   endloop
endfacet
facet normal -4.34422298420669e-014 3.03444591519441e-013 1.0
   outer loop
      vertex -0.0055779109945974 -8.0639900944414 4.50000000000207
      vertex -0.00511897991046908 -12.2592265559349 4.5000000000026
      vertex 0.56382398823188 -7.98902691227252 4.50000000000213
   endloop
endfacet
facet normal -4.34422298420669e-014 3.03444591519441e-013 1.0
   outer loop
      vertex 0.56382398823188 -7.98902691227252 4.50000000000213
      vertex -0.00511897991046908 -12.2592265559349 4.5000000000026
      vertex 0.806568049386541 -12.2631477428318 4.500000000004
   endloop
endfacet
facet normal -4.34422298420669e-014 3.03444591519441e-013 1.0
   outer loop
      vertex 0.56382398823188 -7.98902691227252 4.50000000000213
      vertex 0.806568049386541 -12.2631477428318 4.500000000004
      vertex 1.09442208900806 -7.76924598276059 4.50000000000214
   endloop
endfacet
facet normal -4.34422298420669e-014 3.03444591519441e-013 1.0
   outer loop
      vertex 1.09442208900806 -7.76924598276059 4.50000000000214
      vertex 0.806568049386541 -12.2631477428318 4.500000000004
      vertex 2.43738637430503 -11.8346043490631 4.50000000000399
   endloop
endfacet
facet normal -4.34422298420669e-014 3.03444591519441e-013 1.0
   outer loop
      vertex 1.09442208900806 -7.76924598276059 4.50000000000214
      vertex 2.43738637430503 -11.8346043490631 4.50000000000399
      vertex 1.55005700761532 -7.41962501305186 4.50000000000216
   endloop
endfacet
facet normal -4.34422298420669e-014 3.03444591519441e-013 1.0
   outer loop
      vertex 1.55005700761532 -7.41962501305186 4.50000000000216
      vertex 2.43738637430503 -11.8346043490631 4.50000000000399
      vertex 1.89967797732987 -6.96399009443885 4.50000000000216
   endloop
endfacet
facet normal -4.34422298420669e-014 3.03444591519441e-013 1.0
   outer loop
      vertex 1.89967797732987 -6.96399009443885 4.50000000000216
      vertex 2.43738637430503 -11.8346043490631 4.50000000000399
      vertex 2.11945890684183 -6.43339199365691 4.50000000000218
   endloop
endfacet
facet normal -4.34422298420669e-014 3.03444591519441e-013 1.0
   outer loop
      vertex 2.11945890684183 -6.43339199365691 4.50000000000218
      vertex 2.43738637430503 -11.8346043490631 4.50000000000399
      vertex 2.19442208900499 -5.86399009443622 4.50000000000214
   endloop
endfacet
facet normal -4.34422298420669e-014 3.03444591519441e-013 1.0
   outer loop
      vertex -5.98495371340849 -8.29819283194864 4.50000000000241
      vertex -6.40957592028031 -5.85568747773315 4.50000000000245
      vertex -6.41349710717717 -6.66737450703013 4.50000000000183
   endloop
endfacet
facet normal -4.34422298420669e-014 3.03444591519441e-013 1.0
   outer loop
      vertex -6.40957592028031 -5.85568747773315 4.50000000000245
      vertex -5.98495371340849 -8.29819283194864 4.50000000000241
      vertex -6.40535139730795 -4.98120977704827 4.50000000000128
   endloop
endfacet
facet normal -4.34422298420669e-014 3.03444591519441e-013 1.0
   outer loop
      vertex -6.40535139730795 -4.98120977704827 4.50000000000128
      vertex -5.98495371340849 -8.29819283194864 4.50000000000241
      vertex -5.96107170047672 -3.35460798183168 4.50000000000081
   endloop
endfacet
facet normal -4.34422298420669e-014 3.03444591519441e-013 1.0
   outer loop
      vertex -5.96107170047672 -3.35460798183168 4.50000000000081
      vertex -5.98495371340849 -8.29819283194864 4.50000000000241
      vertex -5.14892574009569 -9.76252717801432 4.5000000000029
   endloop
endfacet
facet normal -4.34422298420669e-014 3.03444591519441e-013 1.0
   outer loop
      vertex -5.96107170047672 -3.35460798183168 4.50000000000081
      vertex -5.14892574009569 -9.76252717801432 4.5000000000029
      vertex -5.11093494380758 -1.89841934563509 4.50000000000038
   endloop
endfacet
facet normal -4.34422298420669e-014 3.03444591519441e-013 1.0
   outer loop
      vertex -5.11093494380758 -1.89841934563509 4.50000000000038
      vertex -5.14892574009569 -9.76252717801432 4.5000000000029
      vertex -3.96238711200851 -10.9605855794622 4.50000000000337
   endloop
endfacet
facet normal -4.34422298420669e-014 3.03444591519441e-013 1.0
   outer loop
      vertex -5.11093494380758 -1.89841934563509 4.50000000000038
      vertex -3.96238711200851 -10.9605855794622 4.50000000000337
      vertex -3.91287654235967 -0.711880717547868 4.50000000000008
   endloop
endfacet
facet normal -4.34422298420669e-014 3.03444591519441e-013 1.0
   outer loop
      vertex -3.91287654235967 -0.711880717547868 4.50000000000008
      vertex -3.96238711200851 -10.9605855794622 4.50000000000337
      vertex -2.5061984758119 -11.8107223361313 4.50000000000371
   endloop
endfacet
facet normal -4.34422298420669e-014 3.03444591519441e-013 1.0
   outer loop
      vertex -3.91287654235967 -0.711880717547868 4.50000000000008
      vertex -2.5061984758119 -11.8107223361313 4.50000000000371
      vertex -2.66639268775414 -0.000229465540644308 4.49999999999985
   endloop
endfacet
facet normal -4.34422298420669e-014 3.03444591519441e-013 1.0
   outer loop
      vertex -2.66639268775414 -0.000229465540644308 4.49999999999985
      vertex -2.5061984758119 -11.8107223361313 4.50000000000371
      vertex -2.20557791099401 -5.86399009443602 4.50000000000173
   endloop
endfacet
facet normal -4.34422298420669e-014 3.03444591519441e-013 1.0
   outer loop
      vertex -2.66639268775414 -0.000229465540644308 4.49999999999985
      vertex -2.20557791099401 -5.86399009443602 4.50000000000173
      vertex -2.13061472883087 -5.29458819521531 4.50000000000166
   endloop
endfacet
facet normal -4.34422298420669e-014 3.03444591519441e-013 1.0
   outer loop
      vertex -2.66639268775414 -0.000229465540644308 4.49999999999985
      vertex -2.13061472883087 -5.29458819521531 4.50000000000166
      vertex -1.91083379931889 -4.7639900944334 4.50000000000165
   endloop
endfacet
facet normal -4.34422298420669e-014 3.03444591519441e-013 1.0
   outer loop
      vertex -2.66639268775414 -0.000229465540644308 4.49999999999985
      vertex -1.91083379931889 -4.7639900944334 4.50000000000165
      vertex -1.56121282960433 -4.30835517582038 4.50000000000169
   endloop
endfacet
facet normal -4.34422298420669e-014 3.03444591519441e-013 1.0
   outer loop
      vertex -2.66639268775414 -0.000229465540644308 4.49999999999985
      vertex -1.56121282960433 -4.30835517582038 4.50000000000169
      vertex 2.66639268775369 0.000229465543367691 4.50000000000016
   endloop
endfacet
facet normal -4.34422298420669e-014 3.03444591519441e-013 1.0
   outer loop
      vertex 2.66639268775369 0.000229465543367691 4.50000000000016
      vertex -1.56121282960433 -4.30835517582038 4.50000000000169
      vertex -1.10557791099706 -3.95873420611163 4.50000000000168
   endloop
endfacet
facet normal -4.34422298420669e-014 3.03444591519441e-013 1.0
   outer loop
      vertex 2.66639268775369 0.000229465543367691 4.50000000000016
      vertex -1.10557791099706 -3.95873420611163 4.50000000000168
      vertex -0.574979810220882 -3.73895327659972 4.50000000000174
   endloop
endfacet
facet normal -4.34422298420669e-014 3.03444591519441e-013 1.0
   outer loop
      vertex 2.66639268775369 0.000229465543367691 4.50000000000016
      vertex -0.574979810220882 -3.73895327659972 4.50000000000174
      vertex -0.00557791099440282 -3.66399009443084 4.50000000000179
   endloop
endfacet
facet normal -4.34422298420669e-014 3.03444591519441e-013 1.0
   outer loop
      vertex 2.66639268775369 0.000229465543367691 4.50000000000016
      vertex -0.00557791099440282 -3.66399009443084 4.50000000000179
      vertex 0.563823988232072 -3.73895327659978 4.50000000000187
   endloop
endfacet
facet normal -4.34422298420669e-014 3.03444591519441e-013 1.0
   outer loop
      vertex 2.66639268775369 0.000229465543367691 4.50000000000016
      vertex 0.563823988232072 -3.73895327659978 4.50000000000187
      vertex 1.09442208900244 -3.95873420611174 4.50000000000193
   endloop
endfacet
facet normal -4.34422298420669e-014 3.03444591519441e-013 1.0
   outer loop
      vertex 2.66639268775369 0.000229465543367691 4.50000000000016
      vertex 1.09442208900244 -3.95873420611174 4.50000000000193
      vertex 1.55005700761546 -4.3083551758205 4.50000000000197
   endloop
endfacet
facet normal -4.34422298420669e-014 3.03444591519441e-013 1.0
   outer loop
      vertex 2.66639268775369 0.000229465543367691 4.50000000000016
      vertex 1.55005700761546 -4.3083551758205 4.50000000000197
      vertex 1.89967797732997 -4.76399009443356 4.50000000000206
   endloop
endfacet
facet normal -4.34422298420669e-014 3.03444591519441e-013 1.0
   outer loop
      vertex 2.66639268775369 0.000229465543367691 4.50000000000016
      vertex 1.89967797732997 -4.76399009443356 4.50000000000206
      vertex 2.11945890684187 -5.29458819521552 4.5000000000021
   endloop
endfacet
facet normal -4.34422298420669e-014 3.03444591519441e-013 1.0
   outer loop
      vertex 2.66639268775369 0.000229465543367691 4.50000000000016
      vertex 2.11945890684187 -5.29458819521552 4.5000000000021
      vertex 2.19442208900499 -5.86399009443622 4.50000000000214
   endloop
endfacet
facet normal -4.34422298420669e-014 3.03444591519441e-013 1.0
   outer loop
      vertex 2.66639268775369 0.000229465543367691 4.50000000000016
      vertex 2.19442208900499 -5.86399009443622 4.50000000000214
      vertex 2.43738637430503 -11.8346043490631 4.50000000000399
   endloop
endfacet
facet normal -4.34422298420669e-014 3.03444591519441e-013 1.0
   outer loop
      vertex 2.66639268775369 0.000229465543367691 4.50000000000016
      vertex 2.43738637430503 -11.8346043490631 4.50000000000399
      vertex 3.90172072037065 -10.9985763757503 4.50000000000377
   endloop
endfacet
facet normal -4.34422298420669e-014 3.03444591519441e-013 1.0
   outer loop
      vertex 2.66639268775369 0.000229465543367691 4.50000000000016
      vertex 3.90172072037065 -10.9985763757503 4.50000000000377
      vertex 3.95123129001957 -0.749871513836064 4.50000000000048
   endloop
endfacet
facet normal -4.34422298420669e-014 3.03444591519441e-013 1.0
   outer loop
      vertex 3.95123129001957 -0.749871513836064 4.50000000000048
      vertex 3.90172072037065 -10.9985763757503 4.50000000000377
      vertex 5.09977912181857 -9.8120377476631 4.50000000000346
   endloop
endfacet
facet normal -4.34422298420669e-014 3.03444591519441e-013 1.0
   outer loop
      vertex 3.95123129001957 -0.749871513836064 4.50000000000048
      vertex 5.09977912181857 -9.8120377476631 4.50000000000346
      vertex 5.13776991810669 -1.94792991528387 4.50000000000097
   endloop
endfacet
facet normal -4.34422298420669e-014 3.03444591519441e-013 1.0
   outer loop
      vertex 5.13776991810669 -1.94792991528387 4.50000000000097
      vertex 5.09977912181857 -9.8120377476631 4.50000000000346
      vertex 5.94991587848771 -8.35584911146651 4.50000000000304
   endloop
endfacet
facet normal -4.34422298420669e-014 3.03444591519441e-013 1.0
   outer loop
      vertex 5.13776991810669 -1.94792991528387 4.50000000000097
      vertex 5.94991587848771 -8.35584911146651 4.50000000000304
      vertex 5.97379789141951 -3.41226426134956 4.50000000000145
   endloop
endfacet
facet normal -4.34422298420669e-014 3.03444591519441e-013 1.0
   outer loop
      vertex 5.97379789141951 -3.41226426134956 4.50000000000145
      vertex 5.94991587848771 -8.35584911146651 4.50000000000304
      vertex 6.39419557531894 -6.7292473162499 4.50000000000253
   endloop
endfacet
facet normal -4.34422298420669e-014 3.03444591519441e-013 1.0
   outer loop
      vertex 5.97379789141951 -3.41226426134956 4.50000000000145
      vertex 6.39419557531894 -6.7292473162499 4.50000000000253
      vertex 6.40234128518819 -5.04308258626808 4.50000000000202
   endloop
endfacet
facet normal -4.34422298420669e-014 3.03444591519441e-013 1.0
   outer loop
      vertex 6.40234128518819 -5.04308258626808 4.50000000000202
      vertex 6.39419557531894 -6.7292473162499 4.50000000000253
      vertex 6.39842009829131 -5.85476961556505 4.50000000000226
   endloop
endfacet
facet normal -0.130526192228105 0.99144486137275 -3.05935001849335e-013
   outer loop
      vertex -0.0055779109945974 -8.0639900944414 4.50000000000207
      vertex 0.563823988232086 -7.98902691227389 2.0818314019538e-012
      vertex -0.0055779109944 -8.06399009444276 2.05081177064577e-012
   endloop
endfacet
facet normal -0.130526192228105 0.99144486137275 -3.05935001849335e-013
   outer loop
      vertex 0.563823988232086 -7.98902691227389 2.0818314019538e-012
      vertex -0.0055779109945974 -8.0639900944414 4.50000000000207
      vertex 0.56382398823188 -7.98902691227252 4.50000000000213
   endloop
endfacet
facet normal -0.382683432366622 0.923879532510652 -2.97821458690389e-013
   outer loop
      vertex 0.56382398823188 -7.98902691227252 4.50000000000213
      vertex 1.09442208900825 -7.76924598276196 2.12131093270947e-012
      vertex 0.563823988232086 -7.98902691227389 2.0818314019538e-012
   endloop
endfacet
facet normal -0.382683432366622 0.923879532510652 -2.97821458690389e-013
   outer loop
      vertex 1.09442208900825 -7.76924598276196 2.12131093270947e-012
      vertex 0.56382398823188 -7.98902691227252 4.50000000000213
      vertex 1.09442208900806 -7.76924598276059 4.50000000000214
   endloop
endfacet
facet normal 0.999988331359059 -0.00483085351920211 4.90771492442399e-014
   outer loop
      vertex 6.40234128518842 -5.04308258626942 1.98454255830589e-012
      vertex 6.39842009829131 -5.85476961556505 4.50000000000226
      vertex 6.39842009829151 -5.85476961556641 2.27358912276705e-012
   endloop
endfacet
facet normal 0.999988331359059 -0.00483085351920211 4.90771492442399e-014
   outer loop
      vertex 6.39842009829131 -5.85476961556505 4.50000000000226
      vertex 6.40234128518842 -5.04308258626942 1.98454255830589e-012
      vertex 6.40234128518819 -5.04308258626808 4.50000000000202
   endloop
endfacet
facet normal 0.999988331359059 -0.00483085351931997 4.72289301474969e-014
   outer loop
      vertex 6.39842009829151 -5.85476961556641 2.27358912276705e-012
      vertex 6.39419557531894 -6.7292473162499 4.50000000000253
      vertex 6.39419557531915 -6.7292473162513 2.53725598888528e-012
   endloop
endfacet
facet normal 0.999988331359059 -0.00483085351931997 4.72289301474969e-014
   outer loop
      vertex 6.39419557531894 -6.7292473162499 4.50000000000253
      vertex 6.39842009829151 -5.85476961556641 2.27358912276705e-012
      vertex 6.39842009829131 -5.85476961556505 4.50000000000226
   endloop
endfacet
facet normal 0.964664238353176 -0.263482271210961 1.23830435435655e-013
   outer loop
      vertex 6.39419557531915 -6.7292473162513 2.53725598888528e-012
      vertex 5.94991587848771 -8.35584911146651 4.50000000000304
      vertex 5.9499158784879 -8.35584911146787 3.02793015684862e-012
   endloop
endfacet
facet normal 0.964664238353176 -0.263482271210961 1.23830435435655e-013
   outer loop
      vertex 5.94991587848771 -8.35584911146651 4.50000000000304
      vertex 6.39419557531915 -6.7292473162513 2.53725598888528e-012
      vertex 6.39419557531894 -6.7292473162499 4.50000000000253
   endloop
endfacet
facet normal 0.863599871685679 -0.504177807548566 1.92814007116576e-013
   outer loop
      vertex 5.9499158784879 -8.35584911146787 3.02793015684862e-012
      vertex 5.09977912181857 -9.8120377476631 4.50000000000346
      vertex 5.09977912181879 -9.81203774766446 3.47207487784991e-012
   endloop
endfacet
facet normal 0.863599871685679 -0.504177807548566 1.92814007116576e-013
   outer loop
      vertex 5.09977912181857 -9.8120377476631 4.50000000000346
      vertex 5.9499158784879 -8.35584911146787 3.02793015684862e-012
      vertex 5.94991587848771 -8.35584911146651 4.50000000000304
   endloop
endfacet
facet normal 0.703682600932455 -0.7105144594904 2.49681370087843e-013
   outer loop
      vertex 5.09977912181857 -9.8120377476631 4.50000000000346
      vertex 3.90172072037086 -10.9985763757517 3.77381129148253e-012
      vertex 5.09977912181879 -9.81203774766446 3.47207487784991e-012
   endloop
endfacet
facet normal 0.703682600932455 -0.7105144594904 2.49681370087843e-013
   outer loop
      vertex 3.90172072037086 -10.9985763757517 3.77381129148253e-012
      vertex 5.09977912181857 -9.8120377476631 4.50000000000346
      vertex 3.90172072037065 -10.9985763757503 4.50000000000377
   endloop
endfacet
facet normal 0.495810523809757 -0.868430725204661 2.85153816680099e-013
   outer loop
      vertex 3.90172072037065 -10.9985763757503 4.50000000000377
      vertex 2.43738637430521 -11.8346043490645 3.97120894526089e-012
      vertex 3.90172072037086 -10.9985763757517 3.77381129148253e-012
   endloop
endfacet
facet normal 0.495810523809757 -0.868430725204661 2.85153816680099e-013
   outer loop
      vertex 2.43738637430521 -11.8346043490645 3.97120894526089e-012
      vertex 3.90172072037065 -10.9985763757503 4.50000000000377
      vertex 2.43738637430503 -11.8346043490631 4.50000000000399
   endloop
endfacet
facet normal 0.254149778861543 -0.967164872141575 3.05387237286342e-013
   outer loop
      vertex 2.43738637430503 -11.8346043490631 4.50000000000399
      vertex 0.806568049386747 -12.2631477428331 4.00222857656891e-012
      vertex 2.43738637430521 -11.8346043490645 3.97120894526089e-012
   endloop
endfacet
facet normal 0.254149778861543 -0.967164872141575 3.05387237286342e-013
   outer loop
      vertex 0.806568049386747 -12.2631477428331 4.00222857656891e-012
      vertex 2.43738637430503 -11.8346043490631 4.50000000000399
      vertex 0.806568049386541 -12.2631477428318 4.500000000004
   endloop
endfacet
endsolid 624 bearing
